<?xml version="1.0" encoding="UTF-8" standalone="no"?>
<!-- Generator: Adobe Illustrator 13.0.2, SVG Export Plug-In . SVG Version: 6.00 Build 14948)  -->

<svg
   xmlns:dc="http://purl.org/dc/elements/1.1/"
   xmlns:cc="http://creativecommons.org/ns#"
   xmlns:rdf="http://www.w3.org/1999/02/22-rdf-syntax-ns#"
   xmlns:svg="http://www.w3.org/2000/svg"
   xmlns="http://www.w3.org/2000/svg"
   xmlns:sodipodi="http://sodipodi.sourceforge.net/DTD/sodipodi-0.dtd"
   xmlns:inkscape="http://www.inkscape.org/namespaces/inkscape"
   id="Layer_1"
   enable-background="new 0 0 286.559 286.234"
   sodipodi:docname="kitchen-timer.svg"
   xml:space="preserve"
   viewBox="0 0 286.559 286.234"
   version="1.0"
   y="0px"
   x="0px"
   inkscape:version="0.48.5 r10040"
   width="100%"
   height="100%"><defs
     id="defs15" /><sodipodi:namedview
     id="namedview253"
     bordercolor="#666666"
     inkscape:pageshadow="2"
     guidetolerance="10"
     pagecolor="#ffffff"
     gridtolerance="10"
     inkscape:window-maximized="0"
     inkscape:zoom="9.3281553"
     objecttolerance="10"
     borderopacity="1"
     inkscape:current-layer="Layer_1"
     inkscape:cx="0.58617045"
     inkscape:cy="15.93582"
     inkscape:window-y="35"
     inkscape:window-x="35"
     inkscape:window-width="998"
     showgrid="false"
     inkscape:pageopacity="0"
     inkscape:window-height="851" /><g
     id="timer"
     transform="matrix(0.10468939,0,0,0.10480716,-8.9531061e-4,256.24)"
     inkscape:export-filename="/tmp/timer.png"
     inkscape:export-xdpi="90"
     inkscape:export-ydpi="90"><path
       id="path237"
       d="M 172.62,2.982 C 163.16,1.031 153.34,0 143.29,0 133.223,0 123.413,1.031 113.939,2.982 48.877,16.369 -0.001,73.348 -0.001,141.632 v 136.73 c 0,4.328 3.582,7.878 7.965,7.878 h 270.63 c 4.383,0 7.967,-3.55 7.967,-7.878 V 141.632 C 286.551,73.35 237.671,16.372 172.611,2.982 z"
       inkscape:connector-curvature="0"
       style="fill:#231f20" /><g
       id="g239"><path
         id="path241"
         d="m 143.29,242.97 c -55.787,0 -101.18,-44.794 -101.18,-99.855 0,-55.053 45.39,-99.846 101.18,-99.846 55.785,0 101.17,44.793 101.17,99.846 0,55.06 -45.38,99.85 -101.17,99.85 z"
         inkscape:connector-curvature="0"
         style="fill:#231f20" /><path
         id="path243"
         d="m 143.29,29.817 c 63.302,0 114.63,50.723 114.63,113.3 0,62.578 -51.324,113.3 -114.63,113.3 -63.303,0 -114.62,-50.723 -114.62,-113.3 -0.008,-62.58 51.313,-113.3 114.62,-113.3 m 0,26.905 c -48.367,0 -87.717,38.758 -87.717,86.393 0,47.638 39.351,86.393 87.717,86.393 48.366,0 87.718,-38.755 87.718,-86.393 -0.01,-47.638 -39.36,-86.395 -87.72,-86.395 z"
         inkscape:connector-curvature="0"
         style="fill:#ffffff" /><path
         id="path245"
         d="M 143.35,239.97 V 38.55 c 0,-1.265 1.017,-2.279 2.281,-2.279 1.25,0 2.273,1.015 2.273,2.279 v 201.42 c 0,1.26 -1.023,2.273 -2.273,2.273 -1.26,0 -2.28,-1.01 -2.28,-2.27 z"
         inkscape:connector-curvature="0"
         style="fill:#ffffff" /><path
         id="path247"
         d="m 43.737,141.54 c -1.257,0 -2.276,-1.02 -2.276,-2.276 0,-1.257 1.02,-2.276 2.276,-2.276 h 203.78 c 1.256,0 2.271,1.02 2.271,2.276 0,1.257 -1.016,2.276 -2.271,2.276 H 43.737 43.734 z"
         inkscape:connector-curvature="0"
         style="fill:#ffffff" /><path
         id="path249"
         d="m 177.67,143.12 c 0,18.77 -15.396,33.983 -34.382,33.983 -18.996,0 -34.393,-15.214 -34.393,-33.983 0,-18.772 15.397,-33.989 34.393,-33.989 18.98,0 34.38,15.21 34.38,33.99 z"
         inkscape:connector-curvature="0"
         style="fill:#ffffff" /><path
         id="path251"
         d="m 144.09,140.59 c -4.064,-4.02 -4.064,-10.539 0,-14.564 l 37.523,-37.082 c 4.07,-4.025 10.666,-4.025 14.736,0 4.068,4.022 4.068,10.541 0,14.563 l -37.52,37.083 c -2.037,2.017 -4.697,3.014 -7.367,3.014 -2.67,0 -5.34,-1 -7.37,-3.01 z"
         inkscape:connector-curvature="0"
         style="fill:#ffffff" /></g></g><metadata
     id="metadata13"><rdf:RDF><cc:Work><dc:format>image/svg+xml</dc:format><dc:type
           rdf:resource="http://purl.org/dc/dcmitype/StillImage" /><cc:license
           rdf:resource="http://creativecommons.org/licenses/publicdomain/" /><dc:publisher><cc:Agent
             rdf:about="http://openclipart.org/"><dc:title>Openclipart</dc:title></cc:Agent></dc:publisher><dc:title></dc:title><dc:date>2012-05-07T12:22:05</dc:date><dc:description>Kitchen timer.</dc:description><dc:source>https://openclipart.org/detail/169925/kitchen-icon---timer-by-studiofibonacci</dc:source><dc:creator><cc:Agent><dc:title>StudioFibonacci</dc:title></cc:Agent></dc:creator><dc:subject><rdf:Bag><rdf:li>clock</rdf:li><rdf:li>icon</rdf:li><rdf:li>kitchen</rdf:li><rdf:li>silhouette</rdf:li><rdf:li>timer</rdf:li></rdf:Bag></dc:subject></cc:Work><cc:License
         rdf:about="http://creativecommons.org/licenses/publicdomain/"><cc:permits
           rdf:resource="http://creativecommons.org/ns#Reproduction" /><cc:permits
           rdf:resource="http://creativecommons.org/ns#Distribution" /><cc:permits
           rdf:resource="http://creativecommons.org/ns#DerivativeWorks" /></cc:License></rdf:RDF></metadata></svg>